<svg xmlns="http://www.w3.org/2000/svg" viewBox="0 0 1200 760">
  <defs><linearGradient id="bg" x1="0" y1="0" x2="1" y2="1"><stop stop-color="#25170e"/><stop offset="0.55" stop-color="#6f4325"/><stop offset="1" stop-color="#e0a75e"/></linearGradient><pattern id="blocks" width="82" height="42" patternUnits="userSpaceOnUse"><rect width="82" height="42" fill="#d8bd95"/><path d="M0 0H82M0 42H82M41 0V42" stroke="#8f6742" stroke-width="3" opacity="0.55"/></pattern></defs>
  <rect width="1200" height="760" fill="url(#bg)"/>
  <path d="M0 590 C210 510 415 550 620 475 C805 408 985 430 1200 365 V760 H0Z" fill="#1b120c" opacity="0.8"/>
  <g transform="translate(210 152)">
    <path d="M80 330 H810 V572 H80Z" fill="url(#blocks)" opacity="0.96"/>
    <path d="M12 330 L445 100 L880 330 L808 365 L445 172 L82 365Z" fill="#351f13"/>
    <path d="M176 410 H272 V570 H176Z" fill="#2a1b10"/><path d="M390 402 H496 V485 H390Z" fill="#243332"/><path d="M590 402 H696 V485 H590Z" fill="#243332"/>
    <rect x="42" y="572" width="825" height="25" rx="10" fill="#9f612e"/>
  </g>
  <g opacity="0.22" stroke="#ffecd0" stroke-width="2"><path d="M120 120 L1080 650"/><path d="M1080 120 L120 650"/></g>
</svg>
